<?xml version="1.0" encoding="UTF-8" standalone="no"?><!DOCTYPE svg PUBLIC "-//W3C//DTD SVG 1.1//EN" "http://www.w3.org/Graphics/SVG/1.1/DTD/svg11.dtd"><svg width="100%" height="100%" viewBox="0 0 368 367" version="1.1" xmlns="http://www.w3.org/2000/svg" xmlns:xlink="http://www.w3.org/1999/xlink" xml:space="preserve" xmlns:serif="http://www.serif.com/" style="fill-rule:evenodd;clip-rule:evenodd;stroke-linecap:round;stroke-linejoin:round;stroke-miterlimit:1.5;"><ellipse cx="183.55" cy="183.208" rx="177.3" ry="176.958" style="fill:#006d17;stroke:url(#_Radial1);stroke-width:12.5px;"/><g id="B"><path d="M200.248,67.849c-0,-4.572 -3.712,-8.283 -8.284,-8.283l-54.444,-0c-4.572,-0 -8.284,3.711 -8.284,8.283l0,16.568c0,4.572 3.712,8.284 8.284,8.284l54.444,-0c4.572,-0 8.284,-3.712 8.284,-8.284l-0,-16.568Z" style="fill:#ffd700;"/><path d="M189.397,194.336c37.062,0.173 67.247,-29.856 67.421,-67.072c0.173,-37.216 -29.731,-67.526 -66.792,-67.698l-0.157,33.67c18.543,0.087 33.504,15.251 33.418,33.872c-0.087,18.62 -15.19,33.644 -33.733,33.558l-0.157,33.67Z" style="fill:#ffd700;"/><path d="M189.766,308.321c19.924,-0.132 39.013,-8.173 53.067,-22.355c29.246,-29.512 29.129,-77.119 -0.261,-106.244c-14.123,-13.995 -33.251,-21.784 -53.175,-21.653l0.092,37.563c9.962,-0.066 19.526,3.829 26.588,10.827c14.695,14.562 14.753,38.365 0.13,53.122c-7.027,7.091 -16.571,11.111 -26.533,11.177l0.092,37.563Z" style="fill:#ffd700;"/><path d="M193.027,41.981c0,-3.903 -3.168,-7.071 -7.071,-7.071l-14.143,-0c-3.903,-0 -7.071,3.168 -7.071,7.071l-0,282.455c-0,3.902 3.168,7.071 7.071,7.071l14.143,0c3.903,0 7.071,-3.169 7.071,-7.071l0,-282.455Z" style="fill:#ffd700;"/><path d="M200.248,283.865c-0,-4.572 -3.712,-8.284 -8.284,-8.284l-54.444,0c-4.572,0 -8.284,3.712 -8.284,8.284l0,16.568c0,4.572 3.712,8.284 8.284,8.284l54.444,-0c4.572,-0 8.284,-3.712 8.284,-8.284l-0,-16.568Z" style="fill:#ffd700;"/></g><defs><radialGradient id="_Radial1" cx="0" cy="0" r="1" gradientUnits="userSpaceOnUse" gradientTransform="matrix(354.6,0,0,353.917,6.25,183.208)"><stop offset="0" style="stop-color:#fff;stop-opacity:1"/><stop offset="0.5" style="stop-color:#fff;stop-opacity:1"/><stop offset="1" style="stop-color:#fff;stop-opacity:1"/></radialGradient></defs></svg>