<?xml version="1.0"?>
<svg xmlns="http://www.w3.org/2000/svg" viewBox="0 0 128 128" width="512" height="512"><g id="icon"><path d="M127,64A62.768,62.768,0,0,1,8.963,93.754v-.016a61.9,61.9,0,0,1-6.9-21.128c-.062-.389-.109-.778-.156-1.168q-.163-1.471-.28-2.989c-.031-.42-.062-.856-.078-1.308C1.506,66.1,1.475,65.059,1.475,64A62.763,62.763,0,0,1,64.235,1.239c.856,0,1.713.016,2.553.047A60.337,60.337,0,0,1,76.925,2.547a4.429,4.429,0,0,1,.763.156,59.777,59.777,0,0,1,8.485,2.491q.841.3,1.682.654A62.646,62.646,0,0,1,127,64Z" fill="#f0f5f9"/><path d="M127,64A62.755,62.755,0,0,1,21.93,110.342,62.761,62.761,0,0,0,93.135,8.288a61.389,61.389,0,0,1,7.333,4.437A62.746,62.746,0,0,1,127,64Z" fill="#d9e2e9"/><path d="M3.052,66.773a.9.9,0,0,0-.061-.187.91.91,0,0,0,.794-.419l.87-1.331a.947.947,0,0,0,.054-.867h0a.961.961,0,0,0,.785-.421l.839-1.3a.9.9,0,0,0,.154-.7.963.963,0,0,0-.066-.211.962.962,0,0,0,.784-.418l.854-1.3a.928.928,0,0,0,0-1.048.89.89,0,0,0,.685-.545c.169-.383.383-.856.626-1.346a.91.91,0,0,0,.007-.9,1.01,1.01,0,0,0,.734-.486c.23-.428.475-.873.754-1.338a.929.929,0,0,0,.1-.709.9.9,0,0,0-.065-.172.969.969,0,0,0,.783-.427c.259-.411.533-.839.847-1.28a.947.947,0,0,0,.1-.863.977.977,0,0,0,.782-.369l.282-.369c.216-.284.434-.571.658-.849a.938.938,0,0,0,.2-.71.955.955,0,0,0-.039-.17.923.923,0,0,0,.827-.313c.322-.383.659-.766,1.015-1.154a.955.955,0,0,0,.242-.686.877.877,0,0,0-.022-.16.982.982,0,0,0,.843-.262c.347-.361.709-.708,1.1-1.082a.946.946,0,0,0,.285-.673.925.925,0,0,0-.012-.149.956.956,0,0,0,.854-.2c.335-.295.669-.577,1.013-.868l.155-.131a.929.929,0,0,0,.341-.81.955.955,0,0,0,.887-.154L23.27,40.4a.936.936,0,0,0,.333-.848.977.977,0,0,0,.863-.19c.417-.355.8-.725,1.2-1.1a.938.938,0,0,0,.277-.668.948.948,0,0,0-.022-.2.953.953,0,0,0,.858-.274c.4-.415.749-.813,1.087-1.216a.936.936,0,0,0,.162-.894.917.917,0,0,0,.833-.385c.308-.41.608-.858.923-1.377a.938.938,0,0,0,.027-.916.936.936,0,0,0,.755-.538,10.009,10.009,0,0,0,.495-1.212l.445.868a.919.919,0,0,0,.711.534.932.932,0,0,0-.014.861l.7,1.384a.929.929,0,0,0,.7.5.958.958,0,0,0-.017.878l.688,1.345a.919.919,0,0,0,.711.532.932.932,0,0,0-.014.862l.7,1.383a.929.929,0,0,0,.7.5.98.98,0,0,0-.013.879l.687,1.342a.916.916,0,0,0,.717.536.86.86,0,0,0-.07.163.883.883,0,0,0,.065.7l.674,1.347a.915.915,0,0,0,.716.534.938.938,0,0,0-.065.148.92.92,0,0,0,.06.727l.254.508c0,.13,0,.317.015.54a.906.906,0,0,0,.446.77.934.934,0,0,0-.134.117.9.9,0,0,0-.248.69c.031.465.062.977.094,1.545a.919.919,0,0,0,.476.75,1.039,1.039,0,0,0-.342.9c.044.472.09.959.146,1.436a.939.939,0,0,0,.485.748.917.917,0,0,0-.118.123.9.9,0,0,0-.193.7l.017.139c.057.459.115.931.183,1.381a.9.9,0,0,0,.508.733.961.961,0,0,0-.286.832l.033.208c.068.436.138.884.218,1.324a.949.949,0,0,0,.533.694.915.915,0,0,0-.251.843l.132.671c.055.275.112.553.171.871a.957.957,0,0,0,.564.655.929.929,0,0,0-.1.133.945.945,0,0,0-.12.722L42,66.138a.907.907,0,0,0,.6.621.928.928,0,0,0-.2.877c.141.5.283.991.449,1.519a.96.96,0,0,0,.621.6.98.98,0,0,0-.14.874c.173.488.346.975.521,1.421a.924.924,0,0,0,.881.655,1,1,0,0,0,.336-.067.924.924,0,0,0,.537-1.191l-.511-1.44a.918.918,0,0,0-.483-.543.951.951,0,0,0-.128-.049.958.958,0,0,0,.146-.849c-.154-.476-.292-.953-.431-1.444l0-.011a.933.933,0,0,0-.583-.614.92.92,0,0,0,.092-.129.906.906,0,0,0,.094-.71c-.123-.494-.247-.987-.354-1.465a.925.925,0,0,0-.56-.667.864.864,0,0,0,.077-.1.917.917,0,0,0,.145-.71c-.052-.283-.108-.562-.164-.838l-.138-.7a.941.941,0,0,0-.536-.65.93.93,0,0,0,.116-.138.887.887,0,0,0,.148-.681c-.042-.281-.089-.557-.136-.831l-.113-.682a.953.953,0,0,0-.509-.693.93.93,0,0,0,.291-.813c-.077-.521-.138-1.012-.2-1.5a.924.924,0,0,0-.343-.635.907.907,0,0,0-.13-.087.886.886,0,0,0,.3-.795c-.046-.529-.093-1.043-.14-1.526a.915.915,0,0,0-.46-.724.962.962,0,0,0,.11-.108.93.93,0,0,0,.226-.677c-.031-.563-.062-1.08-.093-1.534h0a.941.941,0,0,0-.431-.745.966.966,0,0,0,.37-.776c-.015-.45-.015-.708-.015-.713a.782.782,0,0,0-.1-.416l-.358-.716a.92.92,0,0,0-.538-.466.961.961,0,0,0-.166-.039.929.929,0,0,0,.019-.865l-.693-1.355a.926.926,0,0,0-.56-.5.876.876,0,0,0-.146-.033.959.959,0,0,0,.021-.856l-.708-1.386a.921.921,0,0,0-.708-.5.927.927,0,0,0,.081-.2.9.9,0,0,0-.08-.683l-.671-1.341a.915.915,0,0,0-.545-.492.948.948,0,0,0-.166-.039.891.891,0,0,0,.068-.161.9.9,0,0,0-.07-.705l-.68-1.375a.942.942,0,0,0-.7-.5.942.942,0,0,0,.068-.162.918.918,0,0,0-.07-.718l-.679-1.359a.941.941,0,0,0-.72-.5.929.929,0,0,0,.02-.864l-.7-1.418a.939.939,0,0,0-.724-.454.922.922,0,0,0,.041-.882l-.35-.694a.927.927,0,0,0-1.128-.466.942.942,0,0,0-.629,1.048h0a2.753,2.753,0,0,1,0,.531.927.927,0,0,0,.217.682.917.917,0,0,0,.1.079.929.929,0,0,0-.589.6,9.588,9.588,0,0,1-.527,1.319.918.918,0,0,0,.023.857.978.978,0,0,0-.736.448c-.242.408-.513.815-.813,1.234a.926.926,0,0,0-.126.852.864.864,0,0,0-.182,0,.915.915,0,0,0-.618.333c-.3.364-.638.744-.995,1.116a.911.911,0,0,0-.269.675.946.946,0,0,0,.022.178.646.646,0,0,0-.186-.019.978.978,0,0,0-.706.318c-.335.321-.685.655-1.066.991a.943.943,0,0,0-.3.819.958.958,0,0,0-.877.188c-.251.22-.517.432-.792.653l-.369.3a.918.918,0,0,0-.368.623.942.942,0,0,0,0,.209,1.056,1.056,0,0,0-.945.192c-.394.333-.788.668-1.171,1a.943.943,0,0,0-.3.849.918.918,0,0,0-.872.229c-.395.363-.774.742-1.173,1.142a.931.931,0,0,0-.218.854.985.985,0,0,0-.875.287l-1.057,1.2a.958.958,0,0,0-.21.724,1.02,1.02,0,0,0,.035.16.963.963,0,0,0-.2,0,.978.978,0,0,0-.65.35c-.151.2-.3.4-.451.587-.175.226-.348.449-.519.68a.951.951,0,0,0-.169.7.915.915,0,0,0,.049.186.972.972,0,0,0-.807.4c-.315.456-.614.9-.9,1.34a.935.935,0,0,0-.117.719,1.007,1.007,0,0,0,.062.177.9.9,0,0,0-.192.023A.93.93,0,0,0,9.253,53c-.283.489-.551.961-.778,1.385a.933.933,0,0,0-.011.909.926.926,0,0,0-.734.517c-.253.493-.457.935-.632,1.316l-.077.17a.925.925,0,0,0,.109.884.968.968,0,0,0-.633.415l-.86,1.314a.943.943,0,0,0-.063.876.886.886,0,0,0-.189.018.938.938,0,0,0-.6.408l-.854,1.3a.937.937,0,0,0-.077.9.937.937,0,0,0-.784.417l-.84,1.3a.918.918,0,0,0-.154.725.95.95,0,0,0,.057.179c-.075.009-.128.006-.192.02a.885.885,0,0,0-.577.4L1,66.985l.006.178c.015.459.047.9.079,1.329l.12,1.624L2.9,67.5A.918.918,0,0,0,3.052,66.773Z" fill="#c1cdd3"/><path d="M42.153,20.824a6.841,6.841,0,0,0,.912.06h0a.926.926,0,0,0,.795-.472.929.929,0,0,0,.723.369h.1l.041-.006a13.178,13.178,0,0,0,1.605-.345.948.948,0,0,0,.63-.624.841.841,0,0,0,.9.09,15.159,15.159,0,0,0,1.477-.741.948.948,0,0,0,.432-.767.938.938,0,0,0,.9-.133c.418-.322.819-.674,1.236-1.059a.942.942,0,0,0,.261-.844.954.954,0,0,0,.83-.328,15.347,15.347,0,0,0,.973-1.26.917.917,0,0,0,.164-.689.892.892,0,0,0-.035-.145.971.971,0,0,0,.736-.356A10.5,10.5,0,0,1,55.8,12.5a.946.946,0,0,0,.239-.741.99.99,0,0,0,.795-.2c.361-.3.738-.6,1.121-.868a.912.912,0,0,0,.394-.583.891.891,0,0,0,.017-.134.99.99,0,0,0,.825-.077c.41-.242.835-.485,1.29-.714a.971.971,0,0,0,.466-.661.965.965,0,0,0,.457.112.8.8,0,0,0,.373-.076l.241-.105c.375-.163.74-.323,1.108-.462a.95.95,0,0,0,.518-.476.87.87,0,0,0,.052-.135.936.936,0,0,0,.526.165.329.329,0,0,0,.124-.015l.178-.03c.487-.167.959-.32,1.416-.446a.943.943,0,0,0,.6-.563.922.922,0,0,0,.589.215l.22-.015.059-.029c.361-.084.691-.151.971-.208l.421-.087a.967.967,0,0,0,.61-.422,1,1,0,0,0,.076-.146.941.941,0,0,0,.6.222.86.86,0,0,0,.289-.041L71.8,5.532a.927.927,0,0,0,.63-.6.953.953,0,0,0,.559.182.648.648,0,0,0,.272-.04L74.7,4.626a.934.934,0,0,0,.614-.6.938.938,0,0,0,.563.188.839.839,0,0,0,.272-.04L77.6,3.723a.938.938,0,0,0,.614-1.171l-.081-.283-.281-.088A4.986,4.986,0,0,0,76.993,2l-.116-.014L75.6,2.383a.93.93,0,0,0-.608.6.936.936,0,0,0-.838-.149L72.7,3.286a.914.914,0,0,0-.607.6,1.018,1.018,0,0,0-.107-.069.921.921,0,0,0-.72-.077L69.784,4.2a.967.967,0,0,0-.552.539.948.948,0,0,0-.082-.063.905.905,0,0,0-.717-.142l-.283.057c-.341.069-.761.153-1.235.272a.92.92,0,0,0-.582.43.968.968,0,0,0-.07.146.926.926,0,0,0-.853-.18c-.475.128-.966.285-1.51.467a.943.943,0,0,0-.574.629.932.932,0,0,0-.166-.089.945.945,0,0,0-.707-.01c-.462.175-.955.382-1.432.6a.914.914,0,0,0-.5.51.963.963,0,0,0-.05.179.959.959,0,0,0-.88-.017c-.463.24-.926.5-1.364.761a.935.935,0,0,0-.433.574.95.95,0,0,0-.029.185A.9.9,0,0,0,57.608,9a.911.911,0,0,0-.71.153,14.389,14.389,0,0,0-1.237.955.9.9,0,0,0-.358.842.951.951,0,0,0-.17-.02.929.929,0,0,0-.689.276A14.661,14.661,0,0,0,53.381,12.4a.938.938,0,0,0-.208.7.953.953,0,0,0,.039.187.945.945,0,0,0-.758.394q-.431.612-.863,1.133a.922.922,0,0,0-.232.684.87.87,0,0,0,.013.1c-.028,0-.057-.005-.085-.006a.832.832,0,0,0-.679.268,12.564,12.564,0,0,1-1.084.918.945.945,0,0,0-.346.637q0,.035,0,.07a.939.939,0,0,0-.8.075,9.763,9.763,0,0,1-1.239.62.91.91,0,0,0-.523.593c-.022-.015-.046-.03-.07-.044a.91.91,0,0,0-.713-.089,11.575,11.575,0,0,1-1.364.282.914.914,0,0,0-.664.473.922.922,0,0,0-.72-.375,5.383,5.383,0,0,1-.644-.038.935.935,0,0,0-.283,1.849Z" fill="#c1cdd3"/><path d="M125.634,50.371l-.473-.174c-.357-.131-.7-.257-1.05-.376a.955.955,0,0,0-.862.162.937.937,0,0,0-.622-.61l-.015,0c-.575-.159-1.085-.287-1.589-.387a.97.97,0,0,0-.718.178.921.921,0,0,0-.116.1.924.924,0,0,0-.114-.181.959.959,0,0,0-.614-.348l-.021,0a12.264,12.264,0,0,0-1.684-.063.963.963,0,0,0-.658.33.942.942,0,0,0-.107.152.852.852,0,0,0-.068-.071.92.92,0,0,0-.693-.241l-1.54.047a.957.957,0,0,0-.74.439.984.984,0,0,0-.725-.377l-.03,0-1.55.063a.924.924,0,0,0-.673.293.968.968,0,0,0-.1.135.932.932,0,0,0-.764-.366l-1.542.062a.89.89,0,0,0-.766.427.954.954,0,0,0-.776-.381l-1.583.064a.926.926,0,0,0-.724.473,1.029,1.029,0,0,0-.789-.413l-.778.03a.925.925,0,0,0-.86.727.891.891,0,0,0-.193-.271L100.9,48.77a.905.905,0,0,0-.565-.188.922.922,0,0,0,.23-.459l.235-1.546a.951.951,0,0,0-.292-.83.951.951,0,0,0,.541-.706l.235-1.546a.955.955,0,0,0-.166-.69.929.929,0,0,0-.124-.141.955.955,0,0,0,.539-.7l.234-1.545a.948.948,0,0,0-.292-.833.956.956,0,0,0,.541-.72l.234-1.54a.933.933,0,0,0-.173-.694.96.96,0,0,0-.116-.129.962.962,0,0,0,.539-.72l.233-1.539a.933.933,0,0,0-.172-.694.9.9,0,0,0-.125-.138.926.926,0,0,0,.546-.712l.234-1.54a.933.933,0,0,0-.173-.694.923.923,0,0,0-.3-.263.957.957,0,0,0,.234-.365.9.9,0,0,0-.033-.682l-.6-1.42a.924.924,0,0,0-.512-.521.984.984,0,0,0-.192-.055.919.919,0,0,0,.092-.178.9.9,0,0,0-.024-.709l-.616-1.432a.933.933,0,0,0-.7-.551.905.905,0,0,0,.084-.159.935.935,0,0,0-.017-.736l-.214-.489c-.135-.307-.273-.619-.418-.965a.971.971,0,0,0-.7-.522.929.929,0,0,0,.073-.141.953.953,0,0,0-.019-.746c-.2-.471-.423-.956-.641-1.423a.924.924,0,0,0-.538-.492.968.968,0,0,0-.18-.044.923.923,0,0,0,.045-.889c-.157-.334-.313-.654-.465-.965l-.216-.444a.927.927,0,0,0-.735-.537,1,1,0,0,0,.076-.171.922.922,0,0,0-.049-.709l0-.005c-.287-.558-.557-1.035-.8-1.445a.921.921,0,0,0-.826-.432.917.917,0,0,0-.142-.924q-.451-.571-1.048-1.24a.939.939,0,0,0-.839-.3.946.946,0,0,0-.219-.854l0,0c-.232-.252-.477-.5-.727-.762l-.4-.411a.976.976,0,0,0-.633-.251,1.144,1.144,0,0,0-.194.017.942.942,0,0,0-.258-.851L89.268,6.3a.914.914,0,0,0-.652-.269c-.059-.047-.152.01-.226.028a.925.925,0,0,0,0-.29l-.044-.308-.287-.12q-.852-.356-1.706-.663L83.911,3.8,86.83,6.561a.92.92,0,0,0,.857.243,1.009,1.009,0,0,0,.306.872c.36.344.72.689,1.038,1a.963.963,0,0,0,.889.3.972.972,0,0,0,.28.879c.36.375.706.735,1.052,1.081a.93.93,0,0,0,.814.273,1,1,0,0,0,.215.864c.362.393.7.786.978,1.147a.911.911,0,0,0,.762.336.949.949,0,0,0,.066.833c.223.356.465.8.748,1.355a.984.984,0,0,0,.7.451.962.962,0,0,0-.027.889c.21.419.433.88.675,1.38a.92.92,0,0,0,.726.534,1.058,1.058,0,0,0-.045.939c.209.45.419.9.627,1.361a.942.942,0,0,0,.7.544.927.927,0,0,0-.08.153.939.939,0,0,0,.02.744c.163.347.316.7.467,1.056l.162.372a.954.954,0,0,0,.7.525.9.9,0,0,0-.071.878l.6,1.422a.918.918,0,0,0,.712.565.982.982,0,0,0-.085.894l.6,1.422a.906.906,0,0,0,.427.473.914.914,0,0,0-.273.529l-.25,1.546a.932.932,0,0,0,.173.693.9.9,0,0,0,.123.136.913.913,0,0,0-.529.709l-.25,1.544a.935.935,0,0,0,.171.693.889.889,0,0,0,.129.14.941.941,0,0,0-.167.1.918.918,0,0,0-.366.607l-.25,1.546a.933.933,0,0,0,.173.694.971.971,0,0,0,.126.138.926.926,0,0,0-.532.705l-.25,1.544a.931.931,0,0,0,.3.833.93.93,0,0,0-.166.1.918.918,0,0,0-.366.607l-.251,1.552a.937.937,0,0,0,.3.828.927.927,0,0,0-.527.7l-.122.763c-.115-.095-.227-.185-.348-.29a.936.936,0,0,0-.884-.163.914.914,0,0,0-.356-.826l-1.2-.972a.923.923,0,0,0-.895-.157.982.982,0,0,0-.006-.205.917.917,0,0,0-.356-.613c-.259-.209-.524-.412-.792-.616l-.467-.36a.95.95,0,0,0-.869-.126.94.94,0,0,0-.013-.215.914.914,0,0,0-.384-.6c-.42-.312-.842-.624-1.256-.916a.934.934,0,0,0-.686-.171.923.923,0,0,0-.2.052.894.894,0,0,0-.014-.192.95.95,0,0,0-.406-.619c-.436-.3-.873-.592-1.293-.872a.934.934,0,0,0-.706-.144.958.958,0,0,0-.191.06.948.948,0,0,0-.031-.234.907.907,0,0,0-.408-.547c-.458-.3-.916-.584-1.327-.817a.906.906,0,0,0-.93-.051.943.943,0,0,0-.5-.768c-.459-.253-.934-.491-1.418-.725a.919.919,0,0,0-.9.042.913.913,0,0,0-.059-.221.924.924,0,0,0-.5-.5c-.47-.218-.955-.438-1.454-.647a.959.959,0,0,0-.885.1.965.965,0,0,0-.056-.186.922.922,0,0,0-.523-.51l-.314-.118c-.395-.149-.784-.3-1.165-.427a.915.915,0,0,0-.727.029.9.9,0,0,0-.168.1.887.887,0,0,0-.067-.186.915.915,0,0,0-.546-.47c-.515-.172-1.015-.328-1.516-.484a.935.935,0,0,0-.7.061.961.961,0,0,0-.163.106.948.948,0,0,0-.629-.634l-.1-.028c-.482-.132-.963-.263-1.453-.4a.984.984,0,0,0-.739.129.929.929,0,0,0-.115.088.951.951,0,0,0-.626-.609l-.036-.01c-.526-.123-1.035-.247-1.536-.376a.946.946,0,0,0-.7.12.923.923,0,0,0-.157.124.963.963,0,0,0-.092-.185.926.926,0,0,0-.585-.4c-.55-.125-1.069-.236-1.538-.326a.887.887,0,0,0-.689.121.952.952,0,0,0-.175.145.942.942,0,0,0-.1-.18.918.918,0,0,0-.614-.388l-.185-.033c-.531-.1-.986-.177-1.331-.227a.919.919,0,0,0-.716.142.948.948,0,0,0-.149.128c-.012-.03-.026-.059-.041-.088a.916.916,0,0,0-.544-.45l-1.506-.455a.946.946,0,0,0-.864.179.919.919,0,0,0-.618-.642L55.8,27.949a.914.914,0,0,0-.7.068.934.934,0,0,0-.16.108.951.951,0,0,0-.075-.179.928.928,0,0,0-.562-.451l-1.49-.45a.932.932,0,0,0-.717.071.951.951,0,0,0-.151.1.944.944,0,0,0-.625-.624l-1.46-.44a.891.891,0,0,0-.716.031.933.933,0,0,0-.255.182.971.971,0,0,0-.113-.208.918.918,0,0,0-.62-.378c-.3-.047-.671-.112-1.1-.187l-.441-.077a.935.935,0,0,0-.816.278.939.939,0,0,0-.677-.568l-.012,0c-.354-.069-.725-.146-1.107-.225l-.4-.082a.936.936,0,0,0-.714.123.988.988,0,0,0-.141.109.94.94,0,0,0-.09-.183.923.923,0,0,0-.586-.409c-.49-.108-.979-.229-1.506-.373a.948.948,0,0,0-.843.219.946.946,0,0,0-.639-.616l-.05-.014c-.478-.134-.955-.269-1.4-.407a.89.89,0,0,0-.717.032.924.924,0,0,0-.172.108.937.937,0,0,0-.06-.16.914.914,0,0,0-.539-.472c-.489-.169-.964-.337-1.439-.521a.926.926,0,0,0-.865.1.965.965,0,0,0-.045-.161.906.906,0,0,0-.5-.521c-.467-.211-.919-.422-1.323-.638a.912.912,0,0,0-.73-.084.961.961,0,0,0-.146.059.9.9,0,0,0-.018-.14.908.908,0,0,0-.415-.589,10.843,10.843,0,0,1-1.123-.846.918.918,0,0,0-.855-.223.959.959,0,0,0-.3-.853l-.02-.018c-.433-.353-.867-.7-1.347-1.029a.956.956,0,0,0-.9-.035.97.97,0,0,0-.48-.79l-.019-.01a12.761,12.761,0,0,0-1.524-.682.931.931,0,0,0-.71.013.933.933,0,0,0,.036,1.723,13.956,13.956,0,0,1,1.337.616.927.927,0,0,0,.829.013.92.92,0,0,0,.414.727c.391.271.783.571,1.169.9a.98.98,0,0,0,.818.189.923.923,0,0,0,.316.855,13.4,13.4,0,0,0,1.406,1.057.974.974,0,0,0,.876.028.923.923,0,0,0,.5.764c.458.237.947.474,1.511.734a1.085,1.085,0,0,0,.86-.109.954.954,0,0,0,.064.205.909.909,0,0,0,.5.48c.494.208,1,.383,1.518.56a1.109,1.109,0,0,0,.888-.142.93.93,0,0,0,.084.206.915.915,0,0,0,.547.438c.421.132.853.252,1.277.371l.148.03a.74.74,0,0,0,.357.075.924.924,0,0,0,.617-.235.935.935,0,0,0,.671.624l1.565.38.184.025a.909.909,0,0,0,.641-.266.944.944,0,0,0,.67.579c.51.117.994.22,1.532.317v0l.21.035a.909.909,0,0,0,.671-.3.912.912,0,0,0,.7.569c.619.108,1.145.2,1.548.279l.165.01a.938.938,0,0,0,.667-.282.957.957,0,0,0,.049.106.917.917,0,0,0,.553.447l1.582.486.185.022a.946.946,0,0,0,.6-.215.949.949,0,0,0,.629.627l1.409.417a.774.774,0,0,0,.353.073.946.946,0,0,0,.6-.215.919.919,0,0,0,.068.165.953.953,0,0,0,.56.462l1.476.446a.833.833,0,0,0,.285.045.949.949,0,0,0,.606-.219.921.921,0,0,0,.622.647l1.495.451.283.039a.923.923,0,0,0,.673-.3.923.923,0,0,0,.711.57c.388.057.87.141,1.489.248v0l.21.035a.935.935,0,0,0,.668-.288.92.92,0,0,0,.07.134.957.957,0,0,0,.607.424q.716.138,1.523.323l.2.014a.949.949,0,0,0,.65-.263.928.928,0,0,0,.665.592c.491.107.982.23,1.5.368l.233.018a.924.924,0,0,0,.618-.236.912.912,0,0,0,.079.178.929.929,0,0,0,.6.439c.475.133.949.267,1.439.4a.782.782,0,0,0,.285.044.906.906,0,0,0,.594-.22.927.927,0,0,0,.076.185.916.916,0,0,0,.548.445l.355.114c.367.117.741.237,1.048.338a.786.786,0,0,0,.369.073.954.954,0,0,0,.565-.186.962.962,0,0,0,.592.653q.717.255,1.481.551a1.082,1.082,0,0,0,.841-.121.943.943,0,0,0,.56.686c.471.2.942.395,1.328.569a.8.8,0,0,0,.457.121.968.968,0,0,0,.5-.133.941.941,0,0,0,.519.72c.371.173.743.367,1.106.556l.209.106a.934.934,0,0,0,.9.038.927.927,0,0,0,.454.735c.265.161.53.328.8.5l.565.351a.938.938,0,0,0,.83.042,1.01,1.01,0,0,0,.016.16.918.918,0,0,0,.391.6c.193.136.388.267.586.4.232.157.467.315.692.475a.942.942,0,0,0,.892.107.909.909,0,0,0,.388.783l1.26.919a.956.956,0,0,0,.872.133.924.924,0,0,0,.375.8c.208.154.411.311.615.469s.417.323.571.43a.953.953,0,0,0,.916.188.951.951,0,0,0,.355.815l1.275,1.023a.97.97,0,0,0,.811.113.944.944,0,0,0,.343.825c.339.274.679.559,1.009.837l.193.162c.007.005.016.005.023.01a.863.863,0,0,0-.05.139l-.084.495-.345.416a.91.91,0,0,0-.225.7.944.944,0,0,0,.038.19.978.978,0,0,0-.163,0,.962.962,0,0,0-.668.355c-.142.18-.289.37-.441.569-.165.216-.338.441-.537.694a.9.9,0,0,0-.114.871.854.854,0,0,0-.227.012.9.9,0,0,0-.593.378c-.3.41-.615.851-.9,1.277a.931.931,0,0,0-.161.706.987.987,0,0,0,.057.2.962.962,0,0,0-.8.429l-.853,1.342a.953.953,0,0,0-.028.9.967.967,0,0,0-.776.486c-.252.471-.5.943-.739,1.414a.929.929,0,0,0,.048.915,1.019,1.019,0,0,0-.738.564l-.068.174c-.169.434-.332.854-.478,1.322a.911.911,0,0,0,.029.728c.009.018.018.036.028.054a.977.977,0,0,0-.686.441,12.376,12.376,0,0,1-.861,1.189.976.976,0,0,0-.155.825A.747.747,0,0,0,87.893,67a.921.921,0,0,0-.659.3c-.335.366-.669.731-1.078,1.125a.964.964,0,0,0-.228.811.955.955,0,0,0-.839.226l-.113.1c-.336.308-.684.626-1.015.919a.92.92,0,0,0-.339.665.949.949,0,0,0,.008.174.957.957,0,0,0-.141-.026.987.987,0,0,0-.717.219l-1.188.988a.92.92,0,0,0-.336.62.934.934,0,0,0,0,.2,1.011,1.011,0,0,0-.911.171c-.391.316-.782.632-1.186.943a.948.948,0,0,0-.353.8,1.02,1.02,0,0,0-.925.169c-.406.3-.81.6-1.188.891a.943.943,0,0,0-.375.6.953.953,0,0,0-.013.2.915.915,0,0,0-.862.11c-.24.165-.471.331-.7.491-.2.142-.392.281-.593.419a.947.947,0,0,0-.391.791.924.924,0,0,0-.879.106c-.439.308-.852.588-1.3.894a.932.932,0,0,0-.385.774.941.941,0,0,0-.205-.062.9.9,0,0,0-.684.147l-.594.4-.638.319a.924.924,0,0,0-.492.538.878.878,0,0,0-.042.172.978.978,0,0,0-.168-.078.921.921,0,0,0-.71.042l-1.423.688a.929.929,0,0,0-.507.714.953.953,0,0,0-.89-.031l-1.405.687a.938.938,0,0,0-.51.719.955.955,0,0,0-.887-.036l-1.391.68a.93.93,0,0,0-.491.538.9.9,0,0,0-.043.179.941.941,0,0,0-.208-.091.85.85,0,0,0-.666.062l-1.394.666a.917.917,0,0,0-.526.755.929.929,0,0,0-.895-.062l-.2.1-.131-.1a.928.928,0,0,0-.685-.2.918.918,0,0,0-.138.043.921.921,0,0,0-.255-.791L55,86.669a13.916,13.916,0,0,1-1.039-1.056.978.978,0,0,0-.784-.281.984.984,0,0,0,.024-.149.926.926,0,0,0-.22-.672l-.288-.358c-.208-.257-.426-.526-.639-.811a.918.918,0,0,0-.623-.368.814.814,0,0,0-.144-.007.933.933,0,0,0-.107-.836l-.012-.017c-.276-.383-.551-.8-.828-1.218a.911.911,0,0,0-.6-.429.9.9,0,0,0-.146-.019.905.905,0,0,0,.047-.134.929.929,0,0,0-.1-.71l-.01-.016c-.256-.406-.5-.84-.753-1.307a.956.956,0,0,0-.7-.468.958.958,0,0,0,.011-.841l-.014-.028c-.23-.43-.444-.875-.678-1.357a.937.937,0,0,0-.678-.5.887.887,0,0,0,.065-.129.937.937,0,0,0-.017-.736c-.185-.416-.369-.862-.554-1.308l-.17-.412-.967.186-.751.564.162.391c.187.454.375.907.587,1.4a.966.966,0,0,0,.68.486.916.916,0,0,0-.078.161.954.954,0,0,0,.049.75c.232.479.449.927.688,1.39a.941.941,0,0,0,.719.494.936.936,0,0,0-.075.192.906.906,0,0,0,.09.689l.136.241c.22.389.432.766.629,1.073a.934.934,0,0,0,.77.5,1,1,0,0,0-.05.15.938.938,0,0,0,.121.725l.123.188c.257.392.5.771.76,1.121a.892.892,0,0,0,.778.4.9.9,0,0,0-.042.18.923.923,0,0,0,.19.692c.333.443.665.856.983,1.236a.944.944,0,0,0,.822.33.93.93,0,0,0-.023.169.99.99,0,0,0,.288.732c.4.416.758.787,1.039,1.034a.873.873,0,0,0,.691.314.92.92,0,0,0,.234-.05.915.915,0,0,0-.019.23.929.929,0,0,0,.346.627c.445.355.7.515.7.517a.935.935,0,0,0,.914.053l.7-.34a.93.93,0,0,0,.476-.536.916.916,0,0,0,.026-.19.959.959,0,0,0,.5.139.769.769,0,0,0,.394-.1l1.423-.688a.931.931,0,0,0,.506-.713,1.045,1.045,0,0,0,.788.083l1.51-.725a.946.946,0,0,0,.476-.558.927.927,0,0,0,.036-.168.93.93,0,0,0,.473.129.748.748,0,0,0,.411-.086l1.39-.68a.93.93,0,0,0,.491-.538.947.947,0,0,0,.043-.176.993.993,0,0,0,.878.023l1.39-.68a.93.93,0,0,0,.491-.538.9.9,0,0,0,.043-.179,1.089,1.089,0,0,0,.889.029l.746-.361.742-.483a.968.968,0,0,0,.392-.79.98.98,0,0,0,.887-.088l1.322-.9a.939.939,0,0,0,.387-.789.937.937,0,0,0,.879-.107c.41-.284.852-.6,1.288-.926a.932.932,0,0,0,.377-.631.867.867,0,0,0,.006-.162.954.954,0,0,0,.87-.121c.427-.3.855-.617,1.268-.939a.928.928,0,0,0,.378-.819.992.992,0,0,0,.881-.142l1.276-.991a.973.973,0,0,0,.315-.807.936.936,0,0,0,.878-.17L84,72.938a.938.938,0,0,0,.3-.83.961.961,0,0,0,.879-.194c.364-.321.714-.643,1.053-.953l.139-.129a.952.952,0,0,0,.265-.846.938.938,0,0,0,.872-.259c.379-.38.758-.775,1.108-1.157a.935.935,0,0,0,.206-.886.916.916,0,0,0,.836-.346,14.615,14.615,0,0,0,1-1.365.967.967,0,0,0,.007-.95.942.942,0,0,0,.778-.655l.026-.091a12.513,12.513,0,0,1,.5-1.294.95.95,0,0,0-.01-.71.914.914,0,0,0-.069-.134.961.961,0,0,0,.7-.515c.168-.346.353-.693.543-1.046l.153-.285a.908.908,0,0,0,.094-.694.933.933,0,0,0-.073-.189.923.923,0,0,0,.744-.436l.808-1.282a.917.917,0,0,0,.154-.725.933.933,0,0,0-.053-.171.842.842,0,0,0,.782-.411c.248-.367.509-.722.76-1.067l.131-.18a.917.917,0,0,0,.164-.689.894.894,0,0,0-.045-.177.982.982,0,0,0,.795-.371l.476-.616c.168-.216.328-.42.461-.6a.915.915,0,0,0,.205-.7.939.939,0,0,0-.036-.169.977.977,0,0,0,.814-.338c.3-.373.491-.579.49-.579a.844.844,0,0,0,.187-.314l.711.6a.914.914,0,0,0,.886.21.947.947,0,0,0-.006.2.923.923,0,0,0,.324.637l1.19,1.046a.969.969,0,0,0,.856.176.9.9,0,0,0,.3.846l1.146,1.022a.92.92,0,0,0,.876.221.947.947,0,0,0,.288.833l1.185,1.1a.958.958,0,0,0,.246.144l-.015.019a.969.969,0,0,0-.2.686l.17,1.539a.885.885,0,0,0,.511.74.966.966,0,0,0-.353.836l.176,1.586a.955.955,0,0,0,.5.7.966.966,0,0,0-.1.1,1,1,0,0,0-.229.732l.17,1.523a.9.9,0,0,0,.517.745.916.916,0,0,0-.344.824l.159,1.586a.909.909,0,0,0,.585.729.937.937,0,0,0-.22.351.909.909,0,0,0,.035.694c.121.272.317.725.536,1.35a.924.924,0,0,0,.61.611,1.026,1.026,0,0,0-.077.107.962.962,0,0,0-.115.735,15.1,15.1,0,0,1,.323,1.5.934.934,0,0,0,.542.638.919.919,0,0,0-.3.826c.062.475.108.982.158,1.556a.913.913,0,0,0,.48.684.891.891,0,0,0-.13.115.917.917,0,0,0-.247.677l.046,1.523a.936.936,0,0,0,.423.782.891.891,0,0,0-.438.758c-.015.494-.031,1-.062,1.559a.945.945,0,0,0,.386.774,1.015,1.015,0,0,0-.486.823c-.044.466-.088.945-.148,1.463a.9.9,0,0,0,.353.793.973.973,0,0,0-.54.744c-.06.5-.12.991-.213,1.506a.952.952,0,0,0,.294.831.924.924,0,0,0-.152.084.906.906,0,0,0-.387.6l-.278,1.513a.929.929,0,0,0,.144.725.915.915,0,0,0,.108.128.883.883,0,0,0-.153.078.917.917,0,0,0-.407.58l-.375,1.516a.952.952,0,0,0,.209.834.962.962,0,0,0-.142.058.918.918,0,0,0-.463.552c-.153.5-.305.991-.482,1.477a.937.937,0,0,0,.15.839.936.936,0,0,0-.669.577c-.184.489-.382.948-.569,1.38a.9.9,0,0,0-.046.7.917.917,0,0,0,.08.176.927.927,0,0,0-.152.034.9.9,0,0,0-.544.468c-.243.455-.486.9-.753,1.321a.918.918,0,0,0-.044.841.962.962,0,0,0-.759.4c-.3.437-.6.829-.91,1.2a.952.952,0,0,0-.178.822.937.937,0,0,0-.795.254,13.686,13.686,0,0,1-1.116,1.008.955.955,0,0,0-.317.757.874.874,0,0,0-.153-.043.892.892,0,0,0-.668.131,11.652,11.652,0,0,1-1.263.685.953.953,0,0,0-.494.522,1.021,1.021,0,0,0-.035.108.932.932,0,0,0-.767-.169l-.01,0-.034.009-1.243-.1a.966.966,0,0,0-.807.356.933.933,0,0,0-.745-.481l-1.556-.124a.947.947,0,0,0-.686.227.931.931,0,0,0-.125.13.931.931,0,0,0-.748-.482l-1.6-.126a.985.985,0,0,0-.672.257c-.01-.025-.021-.05-.033-.075a.938.938,0,0,0-.561-.483l-1.451-.473a.926.926,0,0,0-.729.036.947.947,0,0,0-.179.114.957.957,0,0,0-.07-.182.917.917,0,0,0-.544-.46l-1.449-.473a.926.926,0,0,0-.73.035.948.948,0,0,0-.18.115.968.968,0,0,0-.076-.194.915.915,0,0,0-.536-.448l-1.486-.5a.956.956,0,0,0-.878.17.965.965,0,0,0-.582-.641l-1.514-.494a.951.951,0,0,0-.7.056.933.933,0,0,0-.176.112.965.965,0,0,0-.581-.639l-1.53-.494a.935.935,0,0,0-.7.06.911.911,0,0,0-.16.1.964.964,0,0,0-.581-.635l-1.529-.494a.932.932,0,0,0-.716.067.9.9,0,0,0-.146.1.984.984,0,0,0-.064-.168.925.925,0,0,0-.553-.478l-.523-.156-.717-.4a.921.921,0,0,0-.9-.012.956.956,0,0,0-.472-.75l-1.371-.748a.906.906,0,0,0-.695-.093.92.92,0,0,0-.2.08.952.952,0,0,0-.474-.75l-1.371-.757a.962.962,0,0,0-.745-.076.9.9,0,0,0-.146.06.944.944,0,0,0-.029-.171.93.93,0,0,0-.434-.567l-1.4-.78a.967.967,0,0,0-.737-.051,1,1,0,0,0-.137.058.927.927,0,0,0-.483-.748L59.668,98.2a.922.922,0,0,0-.9-.013.952.952,0,0,0-.474-.75l-1.37-.748a.913.913,0,0,0-.729-.083.929.929,0,0,0-.166.069.952.952,0,0,0-.474-.749l-1.369-.746a.935.935,0,0,0-.361-.119.935.935,0,0,0-.159-.369.887.887,0,0,0,.649-.584l.537-1.5a.93.93,0,0,0-.159-.839.933.933,0,0,0,.666-.59l.258-.73a.935.935,0,0,0-.573-1.194.938.938,0,0,0-1.191.571l-.259.73a.807.807,0,0,0,.159.879.915.915,0,0,0-.2.052.9.9,0,0,0-.467.526L52.55,93.5a.937.937,0,0,0,.136.837l-1.27-.705a.99.99,0,0,0-.862.01.915.915,0,0,0-.479-.742l-1.352-.753a.926.926,0,0,0-.73-.086.954.954,0,0,0-.173.071.949.949,0,0,0-.467-.749l-1.37-.748a.919.919,0,0,0-.716-.093.952.952,0,0,0-.182.073.957.957,0,0,0-.471-.742l-1.371-.748a.9.9,0,0,0-.862-.015.922.922,0,0,0-.46-.724l-.685-.379a.931.931,0,0,0-.72-.075l-.744.225a.928.928,0,0,0-.554.453.919.919,0,0,0-.063.206.906.906,0,0,0-.875-.209l-1.512.452a.952.952,0,0,0-.559.462.92.92,0,0,0-.069.169.984.984,0,0,0-.148-.1.923.923,0,0,0-.717-.078l-1.513.452a.916.916,0,0,0-.617.642.917.917,0,0,0-.174-.115.936.936,0,0,0-.7-.062l-1.5.452a.955.955,0,0,0-.5.372.949.949,0,0,0-.658-.407l-.019,0c-.414-.046-.92-.123-1.519-.215a.923.923,0,0,0-.695.18.987.987,0,0,0-.138.129.883.883,0,0,0-.089-.16.921.921,0,0,0-.609-.381l-1.511-.289a.888.888,0,0,0-.677.117.957.957,0,0,0-.181.146.925.925,0,0,0-.677-.577c-.489-.107-.978-.229-1.5-.371a.933.933,0,0,0-.833.21.944.944,0,0,0-.624-.621l-.013,0c-.487-.137-.973-.3-1.466-.478a.928.928,0,0,0-.837.148A.972.972,0,0,0,17.709,88l-.044-.02a11.431,11.431,0,0,1-1.356-.633.957.957,0,0,0-.723-.054.982.982,0,0,0-.1.04.894.894,0,0,0-.014-.141.915.915,0,0,0-.388-.6,6.28,6.28,0,0,1-1.011-.882.923.923,0,0,0-.689-.307l0-.005a1,1,0,0,0-.02-.79l-.036-.1a9.652,9.652,0,0,0-.553-1.352A.949.949,0,0,0,12,82.648a.9.9,0,0,0,.078-.209.934.934,0,0,0-.116-.718l0,0c-.284-.443-.586-.9-.924-1.374a.961.961,0,0,0-.809-.367.944.944,0,0,0-.138-.87l-.016-.021c-.331-.411-.679-.838-1.014-1.218a.935.935,0,0,0-.65-.339.807.807,0,0,0-.206.007.963.963,0,0,0-.186-.867L6.906,75.478A.934.934,0,0,0,6.24,75.2c-.031-.021-.124.005-.185.018a.93.93,0,0,0-.255-.862L4.679,73.251A.925.925,0,0,0,3.8,73.01a.93.93,0,0,0-.288-.861c-.41-.394-.8-.757-1.14-1.047L2.137,70.9l-.838.042.074.612c.046.382.092.765.154,1.147l.03.189.141.129c.165.15.346.316.571.536a1.02,1.02,0,0,0,.828.19.96.96,0,0,0,.273.853c.344.329.7.688,1.1,1.082a.97.97,0,0,0,.847.267.954.954,0,0,0,.235.846c.355.37.711.741,1.049,1.108a.926.926,0,0,0,.844.309.92.92,0,0,0-.035.191.91.91,0,0,0,.221.67c.34.4.664.788.994,1.2a.956.956,0,0,0,.788.335.933.933,0,0,0,.122.863c.305.427.595.839.828,1.2a.883.883,0,0,0,.752.487.978.978,0,0,0,0,.852,10.7,10.7,0,0,1,.433,1,1.083,1.083,0,0,0,.124.374.93.93,0,0,0,.843.593.922.922,0,0,0-.072.333.887.887,0,0,0,.244.649,7.782,7.782,0,0,0,1.361,1.2.935.935,0,0,0,.913.062.946.946,0,0,0,.043.254.9.9,0,0,0,.45.536,14.2,14.2,0,0,0,1.4.656.773.773,0,0,0,.463.126.946.946,0,0,0,.542-.171.953.953,0,0,0,.6.7c.406.139.821.269,1.229.4l.287.09a.882.882,0,0,0,.3.043.912.912,0,0,0,.609-.236,1,1,0,0,0,.668.642q.79.186,1.534.372l.226.016a.913.913,0,0,0,.654-.278.961.961,0,0,0,.714.6l.647.12c.311.059.615.116.9.162l.165.007a.936.936,0,0,0,.7-.307.936.936,0,0,0,.11.189.918.918,0,0,0,.606.361c.364.056.7.1,1,.141l.559.077.126.006a.948.948,0,0,0,.785-.4.938.938,0,0,0,.772.4.269.269,0,0,0,.109-.015l1.671-.491a.913.913,0,0,0,.616-.633.952.952,0,0,0,.609.221.641.641,0,0,0,.267-.039l1.5-.452a.951.951,0,0,0,.558-.462.97.97,0,0,0,.07-.172.928.928,0,0,0,.6.222.84.84,0,0,0,.282-.039l1.5-.452a.929.929,0,0,0,.618-.658.927.927,0,0,0,.173.14.909.909,0,0,0,.705.067l.367-.11.339.187a.945.945,0,0,0,.45.115.926.926,0,0,0,.405-.1.888.888,0,0,0,.455.7l1.388.772a.934.934,0,0,0,.868,0,.962.962,0,0,0,.028.168.973.973,0,0,0,.46.591l1.389.757a.955.955,0,0,0,.866,0,.968.968,0,0,0,.486.754l1.325.723a.908.908,0,0,0,.926.043.945.945,0,0,0,.47.743l1.153.641-.179.5a.94.94,0,0,0,.146.853.976.976,0,0,0-.164.057.884.884,0,0,0-.487.529l-.526,1.453a.937.937,0,0,0,.033.742.906.906,0,0,0,.091.15.966.966,0,0,0-.659.587l-.508,1.448a.935.935,0,0,0,.033.743.988.988,0,0,0,.088.145.973.973,0,0,0-.166.057.885.885,0,0,0-.488.529l-.526,1.453a.93.93,0,0,0,.121.887.946.946,0,0,0-.654.586l-.526,1.453a.923.923,0,0,0,.121.881.963.963,0,0,0-.67.594l-.525,1.452a.906.906,0,0,0,.128.88.916.916,0,0,0-.181.065.964.964,0,0,0-.484.542L45.2,114a.939.939,0,0,0,.169.867.947.947,0,0,0-.638.635l-.445,1.542a.958.958,0,0,0,.122.724.928.928,0,0,0,.085.113.928.928,0,0,0-.593.663c-.143.57-.253,1.076-.345,1.536a.946.946,0,0,0,.124.713.933.933,0,0,0,.123.154.9.9,0,0,0-.547.7c-.1.583-.157,1.018-.19,1.293l-.1.675,1.7.6.174-.53a1.162,1.162,0,0,0,.066-.347c.023-.208.074-.676.188-1.389a.937.937,0,0,0-.269-.809.883.883,0,0,0,.541-.657l.115-.489c.073-.313.15-.645.247-1.02a.95.95,0,0,0-.22-.837,1.014,1.014,0,0,0,.6-.631c.124-.463.263-.957.415-1.475a.922.922,0,0,0-.069-.717.986.986,0,0,0-.09-.136.991.991,0,0,0,.625-.6c.155-.479.309-.959.473-1.435a.939.939,0,0,0-.124-.892A.9.9,0,0,0,48,111.66l.526-1.44a.937.937,0,0,0-.116-.877.988.988,0,0,0,.665-.6l.526-1.453a.911.911,0,0,0-.029-.728.964.964,0,0,0-.089-.148.926.926,0,0,0,.651-.6l.538-1.489a.953.953,0,0,0-.133-.843.955.955,0,0,0,.656-.6l.509-1.448a.923.923,0,0,0-.118-.877.972.972,0,0,0,.651-.6l.537-1.488a.95.95,0,0,0-.133-.844.9.9,0,0,0,.639-.595l.071-.2,1.319.734a.965.965,0,0,0,.873,0,.961.961,0,0,0,.48.758l1.385.755a.965.965,0,0,0,.867,0,.953.953,0,0,0,.038.2.967.967,0,0,0,.45.555l1.326.724a.889.889,0,0,0,.923.043.931.931,0,0,0,.485.741l1.376.774a.972.972,0,0,0,.878,0,.952.952,0,0,0,.037.2.888.888,0,0,0,.435.538l1.393.775a.972.972,0,0,0,.871,0,.965.965,0,0,0,.48.758l1.385.755a.973.973,0,0,0,.867,0,.938.938,0,0,0,.038.2.969.969,0,0,0,.453.557l.923.487.644.22a.92.92,0,0,0,.3.043.953.953,0,0,0,.594-.208.99.99,0,0,0,.606.648l1.478.483a.929.929,0,0,0,.3.043.953.953,0,0,0,.589-.2.91.91,0,0,0,.614.644l1.418.452a.774.774,0,0,0,.353.073.954.954,0,0,0,.589-.2.911.911,0,0,0,.614.644l1.421.454a.778.778,0,0,0,.35.072.961.961,0,0,0,.591-.2.918.918,0,0,0,.611.638l1.421.453a.78.78,0,0,0,.351.072.959.959,0,0,0,.59-.2.951.951,0,0,0,.069.178.91.91,0,0,0,.543.461l1.418.451a.774.774,0,0,0,.353.073.963.963,0,0,0,.591-.2.919.919,0,0,0,.611.638l1.412.448a.767.767,0,0,0,.36.077.969.969,0,0,0,.65-.243.936.936,0,0,0,.161.273.92.92,0,0,0,.64.327l1.632.126a.937.937,0,0,0,.736-.36.931.931,0,0,0,.745.483l1.632.126a.939.939,0,0,0,.737-.36.93.93,0,0,0,.749.482l1.719.129.125-.078a.951.951,0,0,0,.7-.681,1,1,0,0,0,.948.1,12.2,12.2,0,0,0,1.495-.822.956.956,0,0,0,.415-.611.888.888,0,0,0,.018-.212.94.94,0,0,0,.916-.157,15.6,15.6,0,0,0,1.226-1.113.942.942,0,0,0,.248-.894.943.943,0,0,0,.867-.335c.318-.4.652-.827.981-1.3a.933.933,0,0,0,.16-.706.981.981,0,0,0-.06-.205.944.944,0,0,0,.781-.45c.271-.446.542-.924.808-1.44a.957.957,0,0,0-.034-.89.943.943,0,0,0,.718-.541c.223-.477.429-.969.632-1.484a.931.931,0,0,0-.12-.9.966.966,0,0,0,.68-.618l.16-.49c.109-.331.221-.669.337-1.059a.968.968,0,0,0-.213-.843.956.956,0,0,0,.629-.664c.127-.506.253-1.011.363-1.545a.942.942,0,0,0-.12-.7.907.907,0,0,0-.127-.16.9.9,0,0,0,.575-.684c.11-.538.206-1.06.28-1.538a.932.932,0,0,0-.145-.724.9.9,0,0,0-.137-.154.958.958,0,0,0,.552-.713l.036-.242c.066-.449.13-.888.182-1.317a.934.934,0,0,0-.324-.843.907.907,0,0,0,.512-.728c.064-.555.112-1.078.139-1.558a.9.9,0,0,0-.193-.7.969.969,0,0,0-.158-.155.89.89,0,0,0,.464-.765c.031-.55.047-1.068.063-1.6a.956.956,0,0,0-.416-.786.95.95,0,0,0,.431-.8l-.047-1.59V79.7a.956.956,0,0,0-.345-.67.913.913,0,0,0-.128-.087.945.945,0,0,0,.363-.819c-.047-.568-.11-1.09-.173-1.595v-.009a.923.923,0,0,0-.541-.722.941.941,0,0,0,.163-.193.874.874,0,0,0,.126-.653c-.087-.536-.2-1.018-.3-1.461l-.041-.17a.949.949,0,0,0-.627-.631.884.884,0,0,0,.134-.2.9.9,0,0,0,.039-.7,11.684,11.684,0,0,0-.619-1.564.926.926,0,0,0-.483-.463l.028-.031a.969.969,0,0,0,.226-.713l-.17-1.548a.927.927,0,0,0-.5-.741.932.932,0,0,0,.132-.135.9.9,0,0,0,.195-.684l-.155-1.557,0-.023a.942.942,0,0,0-.507-.71.976.976,0,0,0,.338-.829l-.171-1.551a.914.914,0,0,0-.506-.726.926.926,0,0,0,.14-.141.9.9,0,0,0,.195-.676l-.156-1.557,0-.023a.956.956,0,0,0-.566-.751.939.939,0,0,0-.072-1.27l-.028-.027c-.127-.11-.3-.272-.52-.475l-.6-.557a.913.913,0,0,0-.891-.233.938.938,0,0,0-.3-.844l-1.17-1.06a.928.928,0,0,0-.671-.235.946.946,0,0,0-.2.032.918.918,0,0,0,.005-.192.935.935,0,0,0-.328-.64l-.762-.681.293-.011a.921.921,0,0,0,.751-.464.948.948,0,0,0,.785.4h0l1.519-.062a.924.924,0,0,0,.778-.43.975.975,0,0,0,.784.383h0l1.559-.063a.923.923,0,0,0,.732-.441.979.979,0,0,0,.792.38h0l1.519-.062a.9.9,0,0,0,.768-.439.969.969,0,0,0,.789.376h0l1.55-.048a.968.968,0,0,0,.657-.331.956.956,0,0,0,.114-.164.986.986,0,0,0,.751.325h0a11.82,11.82,0,0,1,1.488.063.959.959,0,0,0,.689-.287.957.957,0,0,0,.648.509c.442.091.915.213,1.4.342a.858.858,0,0,0,.281.043.942.942,0,0,0,.588-.206.985.985,0,0,0,.588.613c.391.135.794.282,1.229.44l.212.076a.951.951,0,0,0,.309.059.935.935,0,0,0,.869-.6A.955.955,0,0,0,125.634,50.371Z" fill="#c1cdd3"/><path d="M28.593,19.925S40.787,12.4,53.432,13.9c0,0,3.763,5.72,6.925,16.409A116.311,116.311,0,0,0,40.335,46.871s-16.86-5.72-19.118-6.022C21.217,40.85,22.1,31.449,28.593,19.925Z" fill="#84879c"/><path d="M45.992,41.454c-1.8,1.628-3.7,3.442-5.661,5.42,0,0-16.862-5.726-19.113-6.021,0,0,.885-9.409,7.376-20.927a44.346,44.346,0,0,1,6.185-3.005c-5.584,10.644-6.36,19.036-6.36,19.036C30.257,36.208,41.785,40.044,45.992,41.454Z" fill="#707583"/><path d="M85.231,38.291s12.559-7.51,17.177-8c0,0,10.528,10.035,14.406,19.454,0,0-.554,11.082-6.649,20.5L90.587,63.994Z" fill="#84879c"/><path d="M116.815,49.737s-.557,11.092-6.655,20.511L90.589,64l-.656-3.125,14.5,4.622c6.1-9.42,6.655-20.5,6.655-20.5-2.164-5.256-6.415-10.709-9.737-14.5a6.224,6.224,0,0,1,1.06-.208S112.936,40.317,116.815,49.737Z" fill="#707583"/><path d="M118.2,96.058a62.858,62.858,0,0,1-30.034,25.97c3.472-7.271,2.2-10.214,2.2-10.214,14.246-7.131,20.552-17.64,20.552-17.64C113.669,95.949,118.2,96.058,118.2,96.058Z" fill="#84879c"/><path d="M118.2,96.06a62.836,62.836,0,0,1-30.04,25.964,26.881,26.881,0,0,0,2.109-5.868A62.743,62.743,0,0,0,114.5,95.568,21.086,21.086,0,0,0,118.2,96.06Z" fill="#707583"/><path d="M45.344,73.28S35.305,84.614,30.61,91.9c0,0,5.667,11.657,16.515,19.429,0,0,9.553-.648,23.8-5.829,0,0,.324-15.057-.81-23.477Z" fill="#84879c"/><path d="M70.93,105.5c-14.25,5.18-23.8,5.825-23.8,5.825C36.278,103.556,30.606,91.9,30.606,91.9c.787-1.224,1.727-2.557,2.754-3.945a56.15,56.15,0,0,0,13.769,14.742s9.551-.645,23.8-5.824c0,0,0-.175.011-.492C71.017,101.458,70.93,105.5,70.93,105.5Z" fill="#707583"/><path d="M12.435,84.8s-2.289,2.678-3.472,8.937A62.372,62.372,0,0,1,1.475,64a63.044,63.044,0,0,1,.4-7.115,25.758,25.758,0,0,0,5.449,2.149A88.286,88.286,0,0,0,12.435,84.8Z" fill="#84879c"/><path d="M12.433,84.8s-2.284,2.677-3.475,8.939A62.458,62.458,0,0,1,1.473,64c0-1.606.066-3.18.186-4.743a62.151,62.151,0,0,0,7.3,24.992A28.786,28.786,0,0,1,10.51,78.86C11.056,80.794,11.69,82.794,12.433,84.8Z" fill="#707583"/><path d="M40.335,47.871a.987.987,0,0,1-.321-.053c-6.74-2.287-17.344-5.766-18.93-5.977a1,1,0,0,1-.863-1.085c.037-.393.979-9.746,7.5-21.322a1,1,0,0,1,.346-.36c.51-.315,12.64-7.692,25.482-6.164a1,1,0,0,1,.717.443c.157.239,3.881,5.968,7.048,16.675a1,1,0,0,1-.44,1.139A116.607,116.607,0,0,0,41.047,47.573,1,1,0,0,1,40.335,47.871Zm-18.005-7.8c3.756.952,14.754,4.647,17.734,5.655a122.793,122.793,0,0,1,19.117-15.85,69.464,69.464,0,0,0-6.342-15.03c-11.077-1.118-21.856,4.846-23.5,5.8A60.408,60.408,0,0,0,22.33,40.069Z" fill="#2f3a5a"/><path d="M110.165,71.243a.993.993,0,0,1-.3-.047L90.283,64.947a1,1,0,0,1-.675-.749L84.252,38.5a1,1,0,0,1,.466-1.062c.521-.311,12.8-7.629,17.584-8.139a1,1,0,0,1,.8.271c.436.416,10.726,10.291,14.641,19.8a.993.993,0,0,1,.074.431A47.181,47.181,0,0,1,111,70.787,1,1,0,0,1,110.165,71.243ZM91.447,63.219l18.285,5.836A46.235,46.235,0,0,0,115.8,49.91c-3.424-8.106-11.917-16.761-13.737-18.561-3.687.694-12,5.264-15.708,7.437Z" fill="#2f3a5a"/><path d="M88.166,123.028a1,1,0,0,1-.9-1.431c3.159-6.617,2.181-9.38,2.171-9.407a1.024,1.024,0,0,1,.479-1.27c13.793-6.9,20.081-17.159,20.143-17.262a1,1,0,0,1,1.4-.326c2.491,1.6,6.727,1.724,6.769,1.725a1,1,0,0,1,.835,1.511,64.144,64.144,0,0,1-30.512,26.384A1,1,0,0,1,88.166,123.028Zm3.349-10.679c.183,1.234.169,3.709-1.415,7.744a62.212,62.212,0,0,0,26.4-23.17,16.955,16.955,0,0,1-5.255-1.419A54.583,54.583,0,0,1,91.515,112.349Z" fill="#2f3a5a"/><path d="M47.125,112.329a1,1,0,0,1-.583-.187A58.554,58.554,0,0,1,29.71,92.337a1,1,0,0,1,.059-.979C34.452,84.092,44.183,73.083,44.6,72.617a1,1,0,0,1,1.082-.28l24.772,8.743a1,1,0,0,1,.658.81c1.13,8.4.832,23.013.818,23.631a1,1,0,0,1-.658.918c-14.218,5.17-23.679,5.86-24.075,5.887ZM31.766,91.959c1.2,2.258,6.572,11.721,15.643,18.342a99.08,99.08,0,0,0,22.528-5.507c.044-2.951.155-14.735-.735-22.032L45.649,74.448C43.71,76.666,35.9,85.7,31.766,91.959Z" fill="#2f3a5a"/><path d="M8.963,94.738a1,1,0,0,1-.879-.524A63.73,63.73,0,0,1,.475,64a64.418,64.418,0,0,1,.411-7.228,1,1,0,0,1,1.444-.78,24.085,24.085,0,0,0,5.211,2.064,1,1,0,0,1,.787.958,88.045,88.045,0,0,0,5.045,25.441,1,1,0,0,1-.175.992h0c-.021.025-2.144,2.611-3.253,8.477a1,1,0,0,1-.829.8A1.031,1.031,0,0,1,8.963,94.738ZM2.729,58.41c-.169,1.868-.254,3.743-.254,5.59A61.817,61.817,0,0,0,8.608,90.849a20.926,20.926,0,0,1,2.7-6.21,91.263,91.263,0,0,1-4.953-24.82A25.2,25.2,0,0,1,2.729,58.41Z" fill="#2f3a5a"/><path d="M100.466,12.729a31.214,31.214,0,0,0-5.7.981C84.881,5.131,69.327,5.334,69.327,5.334a11.315,11.315,0,0,0-2.538-4.048A62.675,62.675,0,0,1,100.466,12.729Z" fill="#84879c"/><path d="M94.768,14.71a1,1,0,0,1-.655-.245C84.638,6.245,69.5,6.336,69.339,6.334h-.012a1,1,0,0,1-.95-.687,10.279,10.279,0,0,0-2.314-3.674A1,1,0,0,1,66.83.287a63.705,63.705,0,0,1,34.212,11.626,1,1,0,0,1-.509,1.814,30.483,30.483,0,0,0-5.492.945A1,1,0,0,1,94.768,14.71ZM70.021,4.339c3.176.068,16.041.813,25,8.271.556-.14,1.509-.362,2.663-.553a61.678,61.678,0,0,0-28.7-9.641A11.269,11.269,0,0,1,70.021,4.339Z" fill="#2f3a5a"/><path d="M64.235,127.761A63.746,63.746,0,0,1,8.083,94.229a.979.979,0,0,1-.051-.11A62.727,62.727,0,0,1,1.076,72.745c-.061-.379-.11-.781-.158-1.184-.111-1-.206-2.008-.284-3.031C.6,68.094.569,67.645.553,67.18.5,65.983.475,64.97.475,64a64.418,64.418,0,0,1,.411-7.228A63.671,63.671,0,0,1,64.235.239c.869,0,1.738.015,2.591.047A61.521,61.521,0,0,1,77.133,1.569a4.713,4.713,0,0,1,.854.18,60.052,60.052,0,0,1,8.537,2.509c.564.2,1.139.428,1.715.667a63.759,63.759,0,0,1-24,122.836ZM9.895,93.373a61.79,61.79,0,1,0,77.586-86.6c-.556-.232-1.1-.444-1.647-.641a58.984,58.984,0,0,0-8.355-2.454,3.934,3.934,0,0,0-.678-.142A60.1,60.1,0,0,0,66.749,2.285c-.825-.03-1.669-.045-2.513-.045A61.672,61.672,0,0,0,2.873,57a62.5,62.5,0,0,0-.4,7c0,.939.024,1.925.077,3.1.016.448.046.871.076,1.278q.115,1.5.277,2.953c.044.368.089.744.149,1.12A60.781,60.781,0,0,0,9.843,93.262,1.085,1.085,0,0,1,9.895,93.373Z" fill="#2f3a5a"/></g></svg>
