<svg id="Layer_1" enable-background="new 0 0 512 512" height="512" viewBox="0 0 512 512" width="512" xmlns="http://www.w3.org/2000/svg"><g><path d="m488.539 23.432-.005.005c-48.69-48.639-233.257-24.993-361.675 103.426-128.435 128.435-152.071 313.032-103.408 361.694l.005-.005c48.69 48.638 233.257 24.992 361.675-103.426 128.434-128.434 152.07-313.031 103.408-361.694z" fill="#dd7f66"/><path d="m488.551 23.449c-17.481-17.482-52.506-25.632-96.167-22.946 29.123 1.971 52.14 9.824 65.262 22.946 48.663 48.663 25.026 233.26-103.408 361.694-82.296 82.296-187.65 121.563-265.526 126.354 78.881 5.338 202.63-32.552 296.432-126.354 128.433-128.434 152.07-313.032 103.407-361.694z" fill="#d6694b"/><path d="m495.71 202.181-185.891-185.891c15.413-4.782 30.508-8.479 45.022-11.127l151.996 151.996c-2.648 14.514-6.345 29.609-11.127 45.022z" fill="#efedef"/><path d="m471.488 177.959 24.222 24.222c4.782-15.413 8.479-30.508 11.127-45.022l-27.089-27.089c-1.484 15.173-4.222 31.25-8.26 47.889z" fill="#e5e1e5"/><path d="m202.181 495.71c-15.413 4.782-30.508 8.479-45.022 11.127l-151.996-151.996c2.648-14.514 6.345-29.609 11.127-45.022z" fill="#efedef"/><path d="m155.474 372.552-16.026-16.026c-1.609-1.609-1.609-4.218 0-5.828l211.25-211.25c1.609-1.609 4.218-1.609 5.828 0l16.026 16.026c1.609 1.609 1.609 4.218 0 5.828l-211.25 211.25c-1.609 1.609-4.219 1.609-5.828 0z" fill="#c9bfc8"/><g fill="#efedef"><path d="m356.386 222.631-67.017-67.017c-1.609-1.609-1.609-4.218 0-5.828l16.026-16.026c1.609-1.609 4.218-1.609 5.828 0l67.017 67.017c1.609 1.609 1.609 4.218 0 5.828l-16.026 16.026c-1.61 1.61-4.219 1.61-5.828 0z"/><path d="m304.517 274.501-67.017-67.017c-1.609-1.609-1.609-4.218 0-5.828l16.026-16.026c1.609-1.609 4.218-1.609 5.828 0l67.017 67.017c1.609 1.609 1.609 4.218 0 5.828l-16.026 16.026c-1.61 1.609-4.219 1.609-5.828 0z"/><path d="m252.647 326.37-67.017-67.017c-1.609-1.609-1.609-4.218 0-5.828l16.026-16.026c1.609-1.609 4.218-1.609 5.828 0l67.017 67.017c1.609 1.609 1.609 4.218 0 5.828l-16.026 16.026c-1.609 1.609-4.218 1.609-5.828 0z"/><path d="m200.778 378.239-67.017-67.017c-1.609-1.609-1.609-4.218 0-5.828l16.026-16.026c1.609-1.609 4.218-1.609 5.828 0l67.017 67.017c1.609 1.609 1.609 4.218 0 5.828l-16.026 16.026c-1.61 1.609-4.219 1.609-5.828 0z"/></g></g></svg>